<svg xmlns="http://www.w3.org/2000/svg" xmlns:xlink="http://www.w3.org/1999/xlink" xmlns:inkscape="http://www.inkscape.org/namespaces/inkscape" version="1.1" width="792" height="612" viewBox="0 0 792 612">
<defs>
<clipPath id="clip_0">
<path transform="matrix(1.0302,0,0,-1.029,0,586.5322)" d="M0 0H765V570H0Z"/>
</clipPath>
</defs>
<g>
<g clip-path="url(#clip_0)">
<path transform="matrix(1.0302,0,0,-1.029,0,586.5322)" d="M5.7309 544.0561V1.8552H762.1823V544.0561H5.7309Z" fill="#fffcf8" fill-rule="evenodd"/>
<path transform="matrix(1.0302,0,0,-1.029,0,586.5322)" stroke-width=".1164" stroke-linecap="round" stroke-miterlimit="10" stroke-linejoin="miter" fill="none" stroke="#000000" d="M5.7309 544.0561H762.1823V1.8552H5.7309Z"/>
<path transform="matrix(1.0302,0,0,-1.029,0,586.5322)" d="M15.4764 534.3017V11.6096H752.4369V534.3017H15.4764Z" fill="#fffcf8" fill-rule="evenodd"/>
<path transform="matrix(1.0302,0,0,-1.029,0,586.5322)" stroke-width=".1164" stroke-linecap="round" stroke-miterlimit="10" stroke-linejoin="miter" fill="none" stroke="#000000" d="M15.4764 534.3017H752.4369V11.6096H15.4764Z"/>
<path transform="matrix(1.0302,0,0,-1.029,0,586.5322)" stroke-width=".1164" stroke-linecap="round" stroke-miterlimit="10" stroke-linejoin="miter" fill="none" stroke="#000000" d="M100.2764 1.8552V11.6096"/>
<text xml:space="preserve" transform="matrix(1.0302 0 -0 1.029 0 586.5322)" font-size="4.4259" font-family="Times New Roman"><tspan y="-5.2328" x="51.3164">1</tspan></text>
<path transform="matrix(1.0302,0,0,-1.029,0,586.5322)" stroke-width=".1164" stroke-linecap="round" stroke-miterlimit="10" stroke-linejoin="miter" fill="none" stroke="#000000" d="M100.2764 544.0707V534.3017"/>
<text xml:space="preserve" transform="matrix(1.0302 0 -0 1.029 0 586.5322)" font-size="4.4259" font-family="Times New Roman"><tspan y="-537.7376" x="51.3164">1</tspan></text>
<path transform="matrix(1.0302,0,0,-1.029,0,586.5322)" stroke-width=".1164" stroke-linecap="round" stroke-miterlimit="10" stroke-linejoin="miter" fill="none" stroke="#000000" d="M194.851 1.8552V11.6096"/>
<text xml:space="preserve" transform="matrix(1.0302 0 -0 1.029 0 586.5322)" font-size="4.4259" font-family="Times New Roman"><tspan y="-5.2328" x="145.571">2</tspan></text>
<path transform="matrix(1.0302,0,0,-1.029,0,586.5322)" stroke-width=".1164" stroke-linecap="round" stroke-miterlimit="10" stroke-linejoin="miter" fill="none" stroke="#000000" d="M194.8292 544.0707V534.3017"/>
<text xml:space="preserve" transform="matrix(1.0302 0 -0 1.029 0 586.5322)" font-size="4.4259" font-family="Times New Roman"><tspan y="-537.7376" x="145.571">2</tspan></text>
<path transform="matrix(1.0302,0,0,-1.029,0,586.5322)" stroke-width=".1164" stroke-linecap="round" stroke-miterlimit="10" stroke-linejoin="miter" fill="none" stroke="#000000" d="M289.3966 1.8552V11.6096"/>
<text xml:space="preserve" transform="matrix(1.0302 0 -0 1.029 0 586.5322)" font-size="4.4259" font-family="Times New Roman"><tspan y="-5.2328" x="240.2911">3</tspan></text>
<path transform="matrix(1.0302,0,0,-1.029,0,586.5322)" stroke-width=".1164" stroke-linecap="round" stroke-miterlimit="10" stroke-linejoin="miter" fill="none" stroke="#000000" d="M289.3966 544.0707V534.3017"/>
<text xml:space="preserve" transform="matrix(1.0302 0 -0 1.029 0 586.5322)" font-size="4.4259" font-family="Times New Roman"><tspan y="-537.7376" x="240.2911">3</tspan></text>
<path transform="matrix(1.0302,0,0,-1.029,0,586.5322)" stroke-width=".1164" stroke-linecap="round" stroke-miterlimit="10" stroke-linejoin="miter" fill="none" stroke="#000000" d="M383.9712 1.8552V11.6096"/>
<text xml:space="preserve" transform="matrix(1.0302 0 -0 1.029 0 586.5322)" font-size="4.4259" font-family="Times New Roman"><tspan y="-5.2328" x="334.5457">4</tspan></text>
<path transform="matrix(1.0302,0,0,-1.029,0,586.5322)" stroke-width=".1164" stroke-linecap="round" stroke-miterlimit="10" stroke-linejoin="miter" fill="none" stroke="#000000" d="M383.9566 544.0707V534.3017"/>
<text xml:space="preserve" transform="matrix(1.0302 0 -0 1.029 0 586.5322)" font-size="4.4259" font-family="Times New Roman"><tspan y="-537.7376" x="334.5457">4</tspan></text>
<path transform="matrix(1.0302,0,0,-1.029,0,586.5322)" stroke-width=".1164" stroke-linecap="round" stroke-miterlimit="10" stroke-linejoin="miter" fill="none" stroke="#000000" d="M478.5167 1.8552V11.6096"/>
<text xml:space="preserve" transform="matrix(1.0302 0 -0 1.029 0 586.5322)" font-size="4.4259" font-family="Times New Roman"><tspan y="-5.2328" x="429.2657">5</tspan></text>
<path transform="matrix(1.0302,0,0,-1.029,0,586.5322)" stroke-width=".1164" stroke-linecap="round" stroke-miterlimit="10" stroke-linejoin="miter" fill="none" stroke="#000000" d="M478.5167 544.0561V534.3017"/>
<text xml:space="preserve" transform="matrix(1.0302 0 -0 1.029 0 586.5322)" font-size="4.4259" font-family="Times New Roman"><tspan y="-537.7376" x="429.2657">5</tspan></text>
<path transform="matrix(1.0302,0,0,-1.029,0,586.5322)" stroke-width=".1164" stroke-linecap="round" stroke-miterlimit="10" stroke-linejoin="miter" fill="none" stroke="#000000" d="M573.0622 1.8552V11.6096"/>
<text xml:space="preserve" transform="matrix(1.0302 0 -0 1.029 0 586.5322)" font-size="4.4259" font-family="Times New Roman"><tspan y="-5.2328" x="523.7531">6</tspan></text>
<path transform="matrix(1.0302,0,0,-1.029,0,586.5322)" stroke-width=".1164" stroke-linecap="round" stroke-miterlimit="10" stroke-linejoin="miter" fill="none" stroke="#000000" d="M573.0622 544.0561V534.3017"/>
<text xml:space="preserve" transform="matrix(1.0302 0 -0 1.029 0 586.5322)" font-size="4.4259" font-family="Times New Roman"><tspan y="-537.7376" x="523.7531">6</tspan></text>
<path transform="matrix(1.0302,0,0,-1.029,0,586.5322)" stroke-width=".1164" stroke-linecap="round" stroke-miterlimit="10" stroke-linejoin="miter" fill="none" stroke="#000000" d="M667.6368 1.8552V11.6096"/>
<text xml:space="preserve" transform="matrix(1.0302 0 -0 1.029 0 586.5322)" font-size="4.4259" font-family="Times New Roman"><tspan y="-5.2328" x="618.3568">7</tspan></text>
<path transform="matrix(1.0302,0,0,-1.029,0,586.5322)" stroke-width=".1164" stroke-linecap="round" stroke-miterlimit="10" stroke-linejoin="miter" fill="none" stroke="#000000" d="M667.6368 544.0561V534.3017"/>
<text xml:space="preserve" transform="matrix(1.0302 0 -0 1.029 0 586.5322)" font-size="4.4259" font-family="Times New Roman"><tspan y="-537.7376" x="618.3568">7</tspan></text>
<path transform="matrix(1.0302,0,0,-1.029,0,586.5322)" stroke-width=".1164" stroke-linecap="round" stroke-miterlimit="10" stroke-linejoin="miter" fill="none" stroke="#000000" d="M762.1823 1.8552V11.6096"/>
<text xml:space="preserve" transform="matrix(1.0302 0 -0 1.029 0 586.5322)" font-size="4.4259" font-family="Times New Roman"><tspan y="-5.2328" x="712.9605">8</tspan></text>
<path transform="matrix(1.0302,0,0,-1.029,0,586.5322)" stroke-width=".1164" stroke-linecap="round" stroke-miterlimit="10" stroke-linejoin="miter" fill="none" stroke="#000000" d="M762.1823 544.0561V534.3017"/>
<text xml:space="preserve" transform="matrix(1.0302 0 -0 1.029 0 586.5322)" font-size="4.4259" font-family="Times New Roman"><tspan y="-537.7376" x="712.9605">8</tspan></text>
<path transform="matrix(1.0302,0,0,-1.029,0,586.5322)" stroke-width=".1164" stroke-linecap="round" stroke-miterlimit="10" stroke-linejoin="miter" fill="none" stroke="#000000" d="M5.7164 137.3981H15.4764"/>
<text xml:space="preserve" transform="matrix(1.0302 0 -0 1.029 0 586.5322)" font-size="4.4259" font-family="Times New Roman"><tspan y="-68.1271" x="9.0764">D</tspan></text>
<path transform="matrix(1.0302,0,0,-1.029,0,586.5322)" stroke-width=".1164" stroke-linecap="round" stroke-miterlimit="10" stroke-linejoin="miter" fill="none" stroke="#000000" d="M762.1823 137.3981H752.4369"/>
<text xml:space="preserve" transform="matrix(1.0302 0 -0 1.029 0 586.5322)" font-size="4.4259" font-family="Times New Roman"><tspan y="-68.1271" x="755.7823">D</tspan></text>
<path transform="matrix(1.0302,0,0,-1.029,0,586.5322)" stroke-width=".1164" stroke-linecap="round" stroke-miterlimit="10" stroke-linejoin="miter" fill="none" stroke="#000000" d="M5.7164 272.9556H15.4764"/>
<text xml:space="preserve" transform="matrix(1.0302 0 -0 1.029 0 586.5322)" font-size="4.4259" font-family="Times New Roman"><tspan y="-203.6992" x="9.1927">C</tspan></text>
<path transform="matrix(1.0302,0,0,-1.029,0,586.5322)" stroke-width=".1164" stroke-linecap="round" stroke-miterlimit="10" stroke-linejoin="miter" fill="none" stroke="#000000" d="M762.1823 272.9411H752.4369"/>
<text xml:space="preserve" transform="matrix(1.0302 0 -0 1.029 0 586.5322)" font-size="4.4259" font-family="Times New Roman"><tspan y="-203.6992" x="755.8987">C</tspan></text>
<path transform="matrix(1.0302,0,0,-1.029,0,586.5322)" stroke-width=".1164" stroke-linecap="round" stroke-miterlimit="10" stroke-linejoin="miter" fill="none" stroke="#000000" d="M5.7164 408.5204H15.4764"/>
<text xml:space="preserve" transform="matrix(1.0302 0 -0 1.029 0 586.5322)" font-size="4.4259" font-family="Times New Roman"><tspan y="-339.2712" x="9.1927">B</tspan></text>
<path transform="matrix(1.0302,0,0,-1.029,0,586.5322)" stroke-width=".1164" stroke-linecap="round" stroke-miterlimit="10" stroke-linejoin="miter" fill="none" stroke="#000000" d="M762.1823 408.5132H752.4369"/>
<text xml:space="preserve" transform="matrix(1.0302 0 -0 1.029 0 586.5322)" font-size="4.4259" font-family="Times New Roman"><tspan y="-339.2712" x="755.8987">B</tspan></text>
<path transform="matrix(1.0302,0,0,-1.029,0,586.5322)" stroke-width=".1164" stroke-linecap="round" stroke-miterlimit="10" stroke-linejoin="miter" fill="none" stroke="#000000" d="M5.7164 544.0707H15.4764"/>
<text xml:space="preserve" transform="matrix(1.0302 0 -0 1.029 0 586.5322)" font-size="4.4259" font-family="Times New Roman"><tspan y="-474.8433" x="8.96">A</tspan></text>
<path transform="matrix(1.0302,0,0,-1.029,0,586.5322)" stroke-width=".1164" stroke-linecap="round" stroke-miterlimit="10" stroke-linejoin="miter" fill="none" stroke="#000000" d="M762.1823 544.0561H752.4369"/>
<text xml:space="preserve" transform="matrix(1.0302 0 -0 1.029 0 586.5322)" font-size="4.4259" font-family="Times New Roman"><tspan y="-474.8433" x="755.666">A</tspan></text>
<path transform="matrix(1.0302,0,0,-1.029,0,586.5322)" d="M308.3057 490.3339V290.0623H449.833V490.3339H308.3057Z" fill="#fff6a7" fill-rule="evenodd"/>
<path transform="matrix(1.0302,0,0,-1.029,0,586.5322)" stroke-width=".1164" stroke-linecap="round" stroke-miterlimit="10" stroke-linejoin="miter" fill="none" stroke="#000000" d="M308.3057 490.3339H449.833V290.0623H308.3057Z"/>
<path transform="matrix(1.0302,0,0,-1.029,0,586.5322)" d="M308.3057 241.2028V31.1476H449.833V241.2028H308.3057Z" fill="#fff6a7" fill-rule="evenodd"/>
<path transform="matrix(1.0302,0,0,-1.029,0,586.5322)" stroke-width=".1164" stroke-linecap="round" stroke-miterlimit="10" stroke-linejoin="miter" fill="none" stroke="#800000" d="M308.3057 241.2028H449.833V31.1476H308.3057Z"/>
<path transform="matrix(1.0302,0,0,-1.029,0,586.5322)" d="M39.3891 297.3854C39.3891 304.4028 54.6909 310.0807 73.5564 310.0807 92.4219 310.0807 107.7237 304.4028 107.7237 297.3854 107.7237 290.368 92.4219 284.6901 73.5564 284.6901 54.6909 284.6901 39.3891 290.368 39.3891 297.3854Z" fill="#c9daf8"/>
<path transform="matrix(1.0302,0,0,-1.029,0,586.5322)" stroke-width=".1164" stroke-linecap="round" stroke-miterlimit="10" stroke-linejoin="miter" fill="none" stroke="#c9daf8" d="M39.3891 297.3854C39.3891 304.4028 54.6909 310.0807 73.5564 310.0807 92.4219 310.0807 107.7237 304.4028 107.7237 297.3854 107.7237 290.368 92.4219 284.6901 73.5564 284.6901 54.6909 284.6901 39.3891 290.368 39.3891 297.3854Z"/>
<text xml:space="preserve" transform="matrix(1.0302 0 -0 1.029 0 586.5322)" font-size="13.2777" font-family="Times New Roman"><tspan y="-293.3817" x="54.4582 64.027439 71.39258 80.231548 84.63576">USB-C</tspan></text>
<path transform="matrix(1.0302,0,0,-1.029,0,586.5322)" d="M654.8077 475.6877C654.8077 482.676 670.1095 488.383 688.9896 488.383 707.8405 488.383 723.1423 482.676 723.1423 475.6877 723.1423 468.6704 707.8405 462.9633 688.9896 462.9633 670.1095 462.9633 654.8077 468.6704 654.8077 475.6877Z" fill="#d9ead3"/>
<path transform="matrix(1.0302,0,0,-1.029,0,586.5322)" stroke-width=".1164" stroke-linecap="round" stroke-miterlimit="10" stroke-linejoin="miter" fill="none" stroke="#d9ead3" d="M654.8077 475.6877C654.8077 482.676 670.1095 488.383 688.9896 488.383 707.8405 488.383 723.1423 482.676 723.1423 475.6877 723.1423 468.6704 707.8405 462.9633 688.9896 462.9633 670.1095 462.9633 654.8077 468.6704 654.8077 475.6877Z"/>
<text xml:space="preserve" transform="matrix(1.0302 0 -0 1.029 0 586.5322)" font-size="13.2777" font-family="Times New Roman"><tspan y="-471.6986" x="668.975 678.5376 685.8961 694.72848 699.12606">USB-A</tspan></text>
<path transform="matrix(1.0302,0,0,-1.029,0,586.5322)" d="M313.1784 485.4567V441.489H444.9603V485.4567H313.1784Z" fill="#ffffff" fill-rule="evenodd"/>
<path transform="matrix(1.0302,0,0,-1.029,0,586.5322)" stroke-width=".1164" stroke-linecap="round" stroke-miterlimit="10" stroke-linejoin="miter" fill="none" stroke="#ffffff" d="M313.1784 485.4567H444.9603V441.489H313.1784Z"/>
<text xml:space="preserve" transform="matrix(1.0302 0 -0 1.029 0 586.5322)" font-size="13.2777" font-family="Times New Roman"><tspan y="-473.6786" x="321.3966 328.76307 336.8598 343.48274 346.78623 353.40916 356.71266 360.01615 369.5867 376.95317 385.79347 389.09696 395.71989 399.02339 405.6463 408.9498 418.52037 428.0909">FE2.1  USB 2.0 HUB</tspan></text>
<text xml:space="preserve" transform="matrix(1.0302 0 -0 1.029 0 586.5322)" font-size="13.2777" font-family="Times New Roman"><tspan y="-459.0033" x="326.7493 333.3005 336.53233 346.09626 355.6602 368.17176 377.7357 385.09553 393.1856 402.01927 410.10939 419.6733">7 DOWNSTREAM</tspan></text>
<text xml:space="preserve" transform="matrix(1.0302 0 -0 1.029 0 586.5322)" font-size="13.2777" font-family="Times New Roman"><tspan y="-444.3279" x="358.8657 365.94804 375.23448 383.7906 391.9006">PORTS</tspan></text>
<path transform="matrix(1.0302,0,0,-1.029,0,586.5322)" d="M313.1784 236.3255V192.3578H444.9603V236.3255H313.1784Z" fill="#ffffff" fill-rule="evenodd"/>
<path transform="matrix(1.0302,0,0,-1.029,0,586.5322)" stroke-width=".1164" stroke-linecap="round" stroke-miterlimit="10" stroke-linejoin="miter" fill="none" stroke="#ffffff" d="M313.1784 236.3255H444.9603V192.3578H313.1784Z"/>
<text xml:space="preserve" transform="matrix(1.0302 0 -0 1.029 0 586.5322)" font-size="13.2777" font-family="Times New Roman"><tspan y="-224.5474" x="317.6729 325.03807 333.13349 339.75508 343.05723 349.6788 357.04396 360.3461 363.64826 373.2175 380.58265 389.4216 392.72377 399.34535 402.6475 409.26908 412.57124 422.14048 431.70973">FE1.1S  USB 2.0 HUB</tspan></text>
<text xml:space="preserve" transform="matrix(1.0302 0 -0 1.029 0 586.5322)" font-size="13.2777" font-family="Times New Roman"><tspan y="-209.8721" x="326.7493 333.3005 336.53233 346.09626 355.6602 368.17176 377.7357 385.09553 393.1856 402.01927 410.10939 419.6733">4 DOWNSTREAM</tspan></text>
<text xml:space="preserve" transform="matrix(1.0302 0 -0 1.029 0 586.5322)" font-size="13.2777" font-family="Times New Roman"><tspan y="-195.1968" x="358.8657 365.94804 375.23448 383.7906 391.9006">PORTS</tspan></text>
<path transform="matrix(1.0302,0,0,-1.029,0,586.5322)" stroke-width="1.5127" stroke-linecap="round" stroke-miterlimit="10" stroke-linejoin="miter" fill="none" stroke="#a4c2f4" d="M39.3891 312.0316H107.7237V282.7246H39.3891Z"/>
<path transform="matrix(1.0302,0,0,-1.029,0,586.5322)" stroke-width="1.5127" stroke-linecap="round" stroke-miterlimit="10" stroke-linejoin="miter" fill="none" stroke="#d9ead3" d="M654.8077 490.3339H723.1423V461.0124H654.8077Z"/>
<text fill="#000080" xml:space="preserve" transform="matrix(1.0302 0 -0 1.029 0 586.5322)" font-size="8.8518" font-family="Times New Roman"><tspan y="-313.9971" x="58.88 63.76354 70.11648 78.43452 83.8049">POWER</tspan></text>
<path transform="matrix(1.0302,0,0,-1.029,0,586.5322)" d="M39.8764 426.8355C39.8764 433.8528 55.1709 439.5381 74.0437 439.5381 92.9092 439.5381 108.2037 433.8528 108.2037 426.8355 108.2037 419.8254 92.9092 414.1329 74.0437 414.1329 55.1709 414.1329 39.8764 419.8254 39.8764 426.8355Z" fill="#c9daf8"/>
<path transform="matrix(1.0302,0,0,-1.029,0,586.5322)" stroke-width=".1164" stroke-linecap="round" stroke-miterlimit="10" stroke-linejoin="miter" fill="none" stroke="#c9daf8" d="M39.8764 426.8355C39.8764 433.8528 55.1709 439.5381 74.0437 439.5381 92.9092 439.5381 108.2037 433.8528 108.2037 426.8355 108.2037 419.8254 92.9092 414.1329 74.0437 414.1329 55.1709 414.1329 39.8764 419.8254 39.8764 426.8355Z"/>
<text xml:space="preserve" transform="matrix(1.0302 0 -0 1.029 0 586.5322)" font-size="13.2777" font-family="Times New Roman"><tspan y="-422.8973" x="55.04 64.60924 71.97438 80.81335 85.21756">USB-C</tspan></text>
<path transform="matrix(1.0302,0,0,-1.029,0,586.5322)" stroke-width="1.5127" stroke-linecap="round" stroke-miterlimit="10" stroke-linejoin="miter" fill="none" stroke="#a4c2f4" d="M39.8764 441.489H108.2037V412.182H39.8764Z"/>
<text fill="#000080" xml:space="preserve" transform="matrix(1.0302 0 -0 1.029 0 586.5322)" font-size="8.8518" font-family="Times New Roman"><tspan y="-443.3962" x="51.5491 57.92151 62.82452 67.72753 73.11739 79.00295 84.39371 90.682918">UPSTREAM</tspan></text>
<path transform="matrix(1.0302,0,0,-1.029,0,586.5322)" stroke-width="2.4436" stroke-linecap="round" stroke-miterlimit="10" stroke-linejoin="miter" fill="none" stroke="#0b5394" d="M108.2037 426.8282H308.3057"/>
<path transform="matrix(1.0302,0,0,-1.029,0,586.5322)" d="M308.3057 436.5972V417.0592H352.233V436.5972H308.3057Z" fill="#fff2cc" fill-rule="evenodd"/>
<path transform="matrix(1.0302,0,0,-1.029,0,586.5322)" stroke-width=".1164" stroke-linecap="round" stroke-miterlimit="10" stroke-linejoin="miter" fill="none" stroke="#800000" d="M308.3057 436.5972H352.233V417.0592H308.3057Z"/>
<text fill="#000080" xml:space="preserve" transform="matrix(1.0302 0 -0 1.029 0 586.5322)" font-size="6.6388" font-family="Times New Roman"><tspan y="-424.8773" x="311.7384 316.52766 320.21485 323.90205 327.95439 332.37849 336.43009 341.0892">UPSTREAM</tspan></text>
<path transform="matrix(1.0302,0,0,-1.029,0,586.5322)" d="M391.273 436.5972V417.0592H449.833V436.5972H391.273Z" fill="#fff2cc" fill-rule="evenodd"/>
<path transform="matrix(1.0302,0,0,-1.029,0,586.5322)" stroke-width=".1164" stroke-linecap="round" stroke-miterlimit="10" stroke-linejoin="miter" fill="none" stroke="#800000" d="M391.273 436.5972H449.833V417.0592H391.273Z"/>
<path transform="matrix(1.0302,0,0,-1.029,0,586.5322)" d="M391.273 412.182V392.644H449.833V412.182H391.273Z" fill="#fff2cc" fill-rule="evenodd"/>
<path transform="matrix(1.0302,0,0,-1.029,0,586.5322)" stroke-width=".1164" stroke-linecap="round" stroke-miterlimit="10" stroke-linejoin="miter" fill="none" stroke="#800000" d="M391.273 412.182H449.833V392.644H391.273Z"/>
<path transform="matrix(1.0302,0,0,-1.029,0,586.5322)" d="M391.273 387.7522V368.2142H449.833V387.7522H391.273Z" fill="#fff2cc" fill-rule="evenodd"/>
<path transform="matrix(1.0302,0,0,-1.029,0,586.5322)" stroke-width=".1164" stroke-linecap="round" stroke-miterlimit="10" stroke-linejoin="miter" fill="none" stroke="#800000" d="M391.273 387.7522H449.833V368.2142H391.273Z"/>
<path transform="matrix(1.0302,0,0,-1.029,0,586.5322)" d="M391.273 363.3225V343.7845H449.833V363.3225H391.273Z" fill="#fff2cc" fill-rule="evenodd"/>
<path transform="matrix(1.0302,0,0,-1.029,0,586.5322)" stroke-width=".1164" stroke-linecap="round" stroke-miterlimit="10" stroke-linejoin="miter" fill="none" stroke="#800000" d="M391.273 363.3225H449.833V343.7845H391.273Z"/>
<path transform="matrix(1.0302,0,0,-1.029,0,586.5322)" d="M391.273 338.9073V319.3693H449.833V338.9073H391.273Z" fill="#fff2cc" fill-rule="evenodd"/>
<path transform="matrix(1.0302,0,0,-1.029,0,586.5322)" stroke-width=".1164" stroke-linecap="round" stroke-miterlimit="10" stroke-linejoin="miter" fill="none" stroke="#800000" d="M391.273 338.9073H449.833V319.3693H391.273Z"/>
<path transform="matrix(1.0302,0,0,-1.029,0,586.5322)" d="M391.273 314.4775V294.9395H449.833V314.4775H391.273Z" fill="#fff2cc" fill-rule="evenodd"/>
<path transform="matrix(1.0302,0,0,-1.029,0,586.5322)" stroke-width=".1164" stroke-linecap="round" stroke-miterlimit="10" stroke-linejoin="miter" fill="none" stroke="#800000" d="M391.273 314.4775H449.833V294.9395H391.273Z"/>
<path transform="matrix(1.0302,0,0,-1.029,0,586.5322)" d="M308.3057 314.4775V294.9395H366.8657V314.4775H308.3057Z" fill="#fff2cc" fill-rule="evenodd"/>
<path transform="matrix(1.0302,0,0,-1.029,0,586.5322)" stroke-width=".1164" stroke-linecap="round" stroke-miterlimit="10" stroke-linejoin="miter" fill="none" stroke="#800000" d="M308.3057 314.4775H366.8657V294.9395H308.3057Z"/>
<text fill="#000080" xml:space="preserve" transform="matrix(1.0302 0 -0 1.029 0 586.5322)" font-size="8.8518" font-family="Times New Roman"><tspan y="-492.1975" x="674.3277 679.0625 685.2667 690.9832 696.25009 698.3205">PORT 2</tspan></text>
<path transform="matrix(1.0302,0,0,-1.029,0,586.5322)" d="M654.8077 431.72C654.8077 438.7373 670.1095 444.4153 688.9896 444.4153 707.8405 444.4153 723.1423 438.7373 723.1423 431.72 723.1423 424.7026 707.8405 419.0246 688.9896 419.0246 670.1095 419.0246 654.8077 424.7026 654.8077 431.72Z" fill="#d9ead3"/>
<path transform="matrix(1.0302,0,0,-1.029,0,586.5322)" stroke-width=".1164" stroke-linecap="round" stroke-miterlimit="10" stroke-linejoin="miter" fill="none" stroke="#d9ead3" d="M654.8077 431.72C654.8077 438.7373 670.1095 444.4153 688.9896 444.4153 707.8405 444.4153 723.1423 438.7373 723.1423 431.72 723.1423 424.7026 707.8405 419.0246 688.9896 419.0246 670.1095 419.0246 654.8077 424.7026 654.8077 431.72Z"/>
<text xml:space="preserve" transform="matrix(1.0302 0 -0 1.029 0 586.5322)" font-size="13.2777" font-family="Times New Roman"><tspan y="-427.7891" x="668.975 678.5376 685.8961 694.72848 699.12606">USB-A</tspan></text>
<path transform="matrix(1.0302,0,0,-1.029,0,586.5322)" stroke-width="1.5127" stroke-linecap="round" stroke-miterlimit="10" stroke-linejoin="miter" fill="none" stroke="#d9ead3" d="M654.8077 446.3662H723.1423V417.0446H654.8077Z"/>
<text fill="#000080" xml:space="preserve" transform="matrix(1.0302 0 -0 1.029 0 586.5322)" font-size="8.8518" font-family="Times New Roman"><tspan y="-448.288" x="674.3277 679.0625 685.2667 690.9832 696.25009 698.3205">PORT 3</tspan></text>
<path transform="matrix(1.0302,0,0,-1.029,0,586.5322)" d="M654.8077 387.7522C654.8077 394.7696 670.1095 400.4475 688.9896 400.4475 707.8405 400.4475 723.1423 394.7696 723.1423 387.7522 723.1423 380.7349 707.8405 375.0569 688.9896 375.0569 670.1095 375.0569 654.8077 380.7349 654.8077 387.7522Z" fill="#d9ead3"/>
<path transform="matrix(1.0302,0,0,-1.029,0,586.5322)" stroke-width=".1164" stroke-linecap="round" stroke-miterlimit="10" stroke-linejoin="miter" fill="none" stroke="#d9ead3" d="M654.8077 387.7522C654.8077 394.7696 670.1095 400.4475 688.9896 400.4475 707.8405 400.4475 723.1423 394.7696 723.1423 387.7522 723.1423 380.7349 707.8405 375.0569 688.9896 375.0569 670.1095 375.0569 654.8077 380.7349 654.8077 387.7522Z"/>
<text xml:space="preserve" transform="matrix(1.0302 0 -0 1.029 0 586.5322)" font-size="13.2777" font-family="Times New Roman"><tspan y="-383.7631" x="668.975 678.5376 685.8961 694.72848 699.12606">USB-A</tspan></text>
<path transform="matrix(1.0302,0,0,-1.029,0,586.5322)" stroke-width="1.5127" stroke-linecap="round" stroke-miterlimit="10" stroke-linejoin="miter" fill="none" stroke="#d9ead3" d="M654.8077 402.3984H723.1423V373.106H654.8077Z"/>
<text fill="#000080" xml:space="preserve" transform="matrix(1.0302 0 -0 1.029 0 586.5322)" font-size="8.8518" font-family="Times New Roman"><tspan y="-404.262" x="674.3277 679.0625 685.2667 690.9832 696.25009 698.3205">PORT 4</tspan></text>
<path transform="matrix(1.0302,0,0,-1.029,0,586.5322)" d="M654.8077 343.7845C654.8077 350.8018 670.1095 356.4798 688.9896 356.4798 707.8405 356.4798 723.1423 350.8018 723.1423 343.7845 723.1423 336.7671 707.8405 331.0892 688.9896 331.0892 670.1095 331.0892 654.8077 336.7671 654.8077 343.7845Z" fill="#c9daf8"/>
<path transform="matrix(1.0302,0,0,-1.029,0,586.5322)" stroke-width=".1164" stroke-linecap="round" stroke-miterlimit="10" stroke-linejoin="miter" fill="none" stroke="#c9daf8" d="M654.8077 343.7845C654.8077 350.8018 670.1095 356.4798 688.9896 356.4798 707.8405 356.4798 723.1423 350.8018 723.1423 343.7845 723.1423 336.7671 707.8405 331.0892 688.9896 331.0892 670.1095 331.0892 654.8077 336.7671 654.8077 343.7845Z"/>
<text xml:space="preserve" transform="matrix(1.0302 0 -0 1.029 0 586.5322)" font-size="13.2777" font-family="Times New Roman"><tspan y="-339.8536" x="669.9059 679.4751 686.8402 695.6792 700.08346">USB-C</tspan></text>
<path transform="matrix(1.0302,0,0,-1.029,0,586.5322)" stroke-width="1.5127" stroke-linecap="round" stroke-miterlimit="10" stroke-linejoin="miter" fill="none" stroke="#a4c2f4" d="M654.8077 358.4307H723.1423V329.1383H654.8077Z"/>
<text fill="#000080" xml:space="preserve" transform="matrix(1.0302 0 -0 1.029 0 586.5322)" font-size="8.8518" font-family="Times New Roman"><tspan y="-360.3525" x="674.3277 679.0625 685.2667 690.9832 696.25009 698.3205">PORT 5</tspan></text>
<path transform="matrix(1.0302,0,0,-1.029,0,586.5322)" d="M654.8077 299.8167C654.8077 306.8341 670.1095 312.512 688.9896 312.512 707.8405 312.512 723.1423 306.8341 723.1423 299.8167 723.1423 292.7994 707.8405 287.1214 688.9896 287.1214 670.1095 287.1214 654.8077 292.7994 654.8077 299.8167Z" fill="#c9daf8"/>
<path transform="matrix(1.0302,0,0,-1.029,0,586.5322)" stroke-width=".1164" stroke-linecap="round" stroke-miterlimit="10" stroke-linejoin="miter" fill="none" stroke="#c9daf8" d="M654.8077 299.8167C654.8077 306.8341 670.1095 312.512 688.9896 312.512 707.8405 312.512 723.1423 306.8341 723.1423 299.8167 723.1423 292.7994 707.8405 287.1214 688.9896 287.1214 670.1095 287.1214 654.8077 292.7994 654.8077 299.8167Z"/>
<text xml:space="preserve" transform="matrix(1.0302 0 -0 1.029 0 586.5322)" font-size="13.2777" font-family="Times New Roman"><tspan y="-295.8276" x="669.9059 679.4751 686.8402 695.6792 700.08346">USB-C</tspan></text>
<path transform="matrix(1.0302,0,0,-1.029,0,586.5322)" stroke-width="1.5127" stroke-linecap="round" stroke-miterlimit="10" stroke-linejoin="miter" fill="none" stroke="#a4c2f4" d="M654.8077 314.4629H723.1423V285.1705H654.8077Z"/>
<text fill="#000080" xml:space="preserve" transform="matrix(1.0302 0 -0 1.029 0 586.5322)" font-size="8.8518" font-family="Times New Roman"><tspan y="-316.4429" x="674.3277 679.0625 685.2667 690.9832 696.25009 698.3205">PORT 6</tspan></text>
<path transform="matrix(1.0302,0,0,-1.029,0,586.5322)" d="M654.8077 255.849C654.8077 262.8663 670.1095 268.5443 688.9896 268.5443 707.8405 268.5443 723.1423 262.8663 723.1423 255.849 723.1423 248.8316 707.8405 243.1537 688.9896 243.1537 670.1095 243.1537 654.8077 248.8316 654.8077 255.849Z" fill="#c9daf8"/>
<path transform="matrix(1.0302,0,0,-1.029,0,586.5322)" stroke-width=".1164" stroke-linecap="round" stroke-miterlimit="10" stroke-linejoin="miter" fill="none" stroke="#c9daf8" d="M654.8077 255.849C654.8077 262.8663 670.1095 268.5443 688.9896 268.5443 707.8405 268.5443 723.1423 262.8663 723.1423 255.849 723.1423 248.8316 707.8405 243.1537 688.9896 243.1537 670.1095 243.1537 654.8077 248.8316 654.8077 255.849Z"/>
<text xml:space="preserve" transform="matrix(1.0302 0 -0 1.029 0 586.5322)" font-size="13.2777" font-family="Times New Roman"><tspan y="-251.9181" x="669.9059 679.4751 686.8402 695.6792 700.08346">USB-C</tspan></text>
<path transform="matrix(1.0302,0,0,-1.029,0,586.5322)" stroke-width="1.5127" stroke-linecap="round" stroke-miterlimit="10" stroke-linejoin="miter" fill="none" stroke="#a4c2f4" d="M654.8077 270.5243H723.1423V241.2028H654.8077Z"/>
<text fill="#000080" xml:space="preserve" transform="matrix(1.0302 0 -0 1.029 0 586.5322)" font-size="8.8518" font-family="Times New Roman"><tspan y="-272.417" x="674.3277 679.0625 685.2667 690.9832 696.25009 698.3205">PORT 7</tspan></text>
<path transform="matrix(1.0302,0,0,-1.029,0,586.5322)" stroke-width="2.4436" stroke-linecap="round" stroke-miterlimit="10" stroke-linejoin="miter" fill="none" stroke="#0b5394" d="M449.833 426.8282H503.5349"/>
<path transform="matrix(1.0302,0,0,-1.029,0,586.5322)" stroke-width="2.4436" stroke-linecap="round" stroke-miterlimit="10" stroke-linejoin="miter" fill="none" stroke="#0b5394" d="M503.5349 426.8282V475.6877"/>
<path transform="matrix(1.0302,0,0,-1.029,0,586.5322)" stroke-width="2.4436" stroke-linecap="round" stroke-miterlimit="10" stroke-linejoin="miter" fill="none" stroke="#0b5394" d="M503.5349 475.6877H654.8077"/>
<path transform="matrix(1.0302,0,0,-1.029,0,586.5322)" stroke-width="2.4436" stroke-linecap="round" stroke-miterlimit="10" stroke-linejoin="miter" fill="none" stroke="#0b5394" d="M449.833 402.3984H537.6876"/>
<path transform="matrix(1.0302,0,0,-1.029,0,586.5322)" stroke-width="2.4436" stroke-linecap="round" stroke-miterlimit="10" stroke-linejoin="miter" fill="none" stroke="#0b5394" d="M537.6876 402.3984V431.72"/>
<path transform="matrix(1.0302,0,0,-1.029,0,586.5322)" stroke-width="2.4436" stroke-linecap="round" stroke-miterlimit="10" stroke-linejoin="miter" fill="none" stroke="#0b5394" d="M537.6876 431.72H654.8077"/>
<path transform="matrix(1.0302,0,0,-1.029,0,586.5322)" stroke-width="2.4436" stroke-linecap="round" stroke-miterlimit="10" stroke-linejoin="miter" fill="none" stroke="#0b5394" d="M449.833 377.9687H557.2077"/>
<path transform="matrix(1.0302,0,0,-1.029,0,586.5322)" stroke-width="2.4436" stroke-linecap="round" stroke-miterlimit="10" stroke-linejoin="miter" fill="none" stroke="#0b5394" d="M557.2077 377.9687V387.7522"/>
<path transform="matrix(1.0302,0,0,-1.029,0,586.5322)" stroke-width="2.4436" stroke-linecap="round" stroke-miterlimit="10" stroke-linejoin="miter" fill="none" stroke="#0b5394" d="M557.2077 387.7522H654.8077"/>
<path transform="matrix(1.0302,0,0,-1.029,0,586.5322)" stroke-width="2.4436" stroke-linecap="round" stroke-miterlimit="10" stroke-linejoin="miter" fill="none" stroke="#0b5394" d="M449.833 353.5389H557.2077"/>
<path transform="matrix(1.0302,0,0,-1.029,0,586.5322)" stroke-width="2.4436" stroke-linecap="round" stroke-miterlimit="10" stroke-linejoin="miter" fill="none" stroke="#0b5394" d="M557.2077 353.5389V343.7845"/>
<path transform="matrix(1.0302,0,0,-1.029,0,586.5322)" stroke-width="2.4436" stroke-linecap="round" stroke-miterlimit="10" stroke-linejoin="miter" fill="none" stroke="#0b5394" d="M557.2077 343.7845H654.8077"/>
<path transform="matrix(1.0302,0,0,-1.029,0,586.5322)" stroke-width="2.4436" stroke-linecap="round" stroke-miterlimit="10" stroke-linejoin="miter" fill="none" stroke="#0b5394" d="M449.833 329.1383H537.6876"/>
<path transform="matrix(1.0302,0,0,-1.029,0,586.5322)" stroke-width="2.4436" stroke-linecap="round" stroke-miterlimit="10" stroke-linejoin="miter" fill="none" stroke="#0b5394" d="M537.6876 329.1383V299.8167"/>
<path transform="matrix(1.0302,0,0,-1.029,0,586.5322)" stroke-width="2.4436" stroke-linecap="round" stroke-miterlimit="10" stroke-linejoin="miter" fill="none" stroke="#0b5394" d="M537.6876 299.8167H654.8077"/>
<path transform="matrix(1.0302,0,0,-1.029,0,586.5322)" stroke-width="2.4436" stroke-linecap="round" stroke-miterlimit="10" stroke-linejoin="miter" fill="none" stroke="#0b5394" d="M449.833 304.7085H503.5349"/>
<path transform="matrix(1.0302,0,0,-1.029,0,586.5322)" stroke-width="2.4436" stroke-linecap="round" stroke-miterlimit="10" stroke-linejoin="miter" fill="none" stroke="#0b5394" d="M503.5349 304.7085V255.849"/>
<path transform="matrix(1.0302,0,0,-1.029,0,586.5322)" stroke-width="2.4436" stroke-linecap="round" stroke-miterlimit="10" stroke-linejoin="miter" fill="none" stroke="#0b5394" d="M503.5349 255.849H654.8077"/>
<text fill="#000080" xml:space="preserve" transform="matrix(1.0302 0 -0 1.029 0 586.5322)" font-size="6.6388" font-family="Times New Roman"><tspan y="-424.4114" x="395.6366 400.4119 405.1872 411.4363 416.2116 419.88487 423.92326 428.3334 432.3718 437.1471 443.03108 444.67079">DOWNSTREAM 2</tspan></text>
<text fill="#000080" xml:space="preserve" transform="matrix(1.0302 0 -0 1.029 0 586.5322)" font-size="6.6388" font-family="Times New Roman"><tspan y="-302.2335" x="311.1566 315.9319 320.70719 326.9563 331.7316 335.40486 339.44325 343.8534 347.89179 352.66709 358.55107 360.19078">DOWNSTREAM 1</tspan></text>
<path transform="matrix(1.0302,0,0,-1.029,0,586.5322)" d="M308.3057 187.4806V167.928H352.233V187.4806H308.3057Z" fill="#fff2cc" fill-rule="evenodd"/>
<path transform="matrix(1.0302,0,0,-1.029,0,586.5322)" stroke-width=".1164" stroke-linecap="round" stroke-miterlimit="10" stroke-linejoin="miter" fill="none" stroke="#800000" d="M308.3057 187.4806H352.233V167.928H308.3057Z"/>
<text fill="#000080" xml:space="preserve" transform="matrix(1.0302 0 -0 1.029 0 586.5322)" font-size="6.6388" font-family="Times New Roman"><tspan y="-175.7461" x="311.1566 315.94584 319.63304 323.32023 327.37257 331.79667 335.84828 340.5074">UPSTREAM</tspan></text>
<path transform="matrix(1.0302,0,0,-1.029,0,586.5322)" stroke-width="2.4436" stroke-linecap="round" stroke-miterlimit="10" stroke-linejoin="miter" fill="none" stroke="#0b5394" d="M308.3057 304.7085H269.2656"/>
<path transform="matrix(1.0302,0,0,-1.029,0,586.5322)" stroke-width="2.4436" stroke-linecap="round" stroke-miterlimit="10" stroke-linejoin="miter" fill="none" stroke="#0b5394" d="M269.2656 304.7085V177.697"/>
<path transform="matrix(1.0302,0,0,-1.029,0,586.5322)" stroke-width="2.4436" stroke-linecap="round" stroke-miterlimit="10" stroke-linejoin="miter" fill="none" stroke="#0b5394" d="M269.2656 177.697H308.3057"/>
<path transform="matrix(1.0302,0,0,-1.029,0,586.5322)" d="M391.273 153.2818V133.7438H449.833V153.2818H391.273Z" fill="#fff2cc" fill-rule="evenodd"/>
<path transform="matrix(1.0302,0,0,-1.029,0,586.5322)" stroke-width=".1164" stroke-linecap="round" stroke-miterlimit="10" stroke-linejoin="miter" fill="none" stroke="#800000" d="M391.273 153.2818H449.833V133.7438H391.273Z"/>
<path transform="matrix(1.0302,0,0,-1.029,0,586.5322)" d="M391.273 84.8989V65.3318H449.833V84.8989H391.273Z" fill="#fff2cc" fill-rule="evenodd"/>
<path transform="matrix(1.0302,0,0,-1.029,0,586.5322)" stroke-width=".1164" stroke-linecap="round" stroke-miterlimit="10" stroke-linejoin="miter" fill="none" stroke="#800000" d="M391.273 84.8989H449.833V65.3318H391.273Z"/>
<path transform="matrix(1.0302,0,0,-1.029,0,586.5322)" d="M308.3057 153.2818V133.7438H366.8657V153.2818H308.3057Z" fill="#fff2cc" fill-rule="evenodd"/>
<path transform="matrix(1.0302,0,0,-1.029,0,586.5322)" stroke-width=".1164" stroke-linecap="round" stroke-miterlimit="10" stroke-linejoin="miter" fill="none" stroke="#800000" d="M308.3057 153.2818H366.8657V133.7438H308.3057Z"/>
<path transform="matrix(1.0302,0,0,-1.029,0,586.5322)" d="M308.3057 84.8989V65.3318H366.8657V84.8989H308.3057Z" fill="#fff2cc" fill-rule="evenodd"/>
<path transform="matrix(1.0302,0,0,-1.029,0,586.5322)" stroke-width=".1164" stroke-linecap="round" stroke-miterlimit="10" stroke-linejoin="miter" fill="none" stroke="#800000" d="M308.3057 84.8989H366.8657V65.3318H308.3057Z"/>
<text fill="#000080" xml:space="preserve" transform="matrix(1.0302 0 -0 1.029 0 586.5322)" font-size="6.6388" font-family="Times New Roman"><tspan y="-141.0378" x="311.7384 316.5137 321.289 327.53813 332.31343 335.98667 340.02507 344.4352 348.4736 353.2489 359.13288 360.77259">DOWNSTREAM 8</tspan></text>
<text fill="#000080" xml:space="preserve" transform="matrix(1.0302 0 -0 1.029 0 586.5322)" font-size="6.6388" font-family="Times New Roman"><tspan y="-72.6694" x="311.7384 316.5137 321.289 327.53813 332.31343 335.98667 340.02507 344.4352 348.4736 353.2489 359.13288 360.77259">DOWNSTREAM 9</tspan></text>
<text fill="#000080" xml:space="preserve" transform="matrix(1.0302 0 -0 1.029 0 586.5322)" font-size="6.6388" font-family="Times New Roman"><tspan y="-141.0378" x="392.7275 397.4922 402.25688 408.49537 413.26005 416.92268 420.95045 425.34999 429.37776 434.14244 440.01579 441.64485 445.02265">DOWNSTREAM 10</tspan></text>
<text fill="#000080" xml:space="preserve" transform="matrix(1.0302 0 -0 1.029 0 586.5322)" font-size="6.6388" font-family="Times New Roman"><tspan y="-72.6694" x="393.6584 398.42308 403.18775 409.42625 414.19093 417.85356 421.88133 426.28086 430.30863 435.0733 440.94667 442.5757 445.72053">DOWNSTREAM 11</tspan></text>
<path transform="matrix(1.0302,0,0,-1.029,0,586.5322)" d="M157.011 363.3297V334.0228H186.291V363.3297H157.011Z" fill="#ffa4a4" fill-rule="evenodd"/>
<path transform="matrix(1.0302,0,0,-1.029,0,586.5322)" stroke-width=".1164" stroke-linecap="round" stroke-miterlimit="10" stroke-linejoin="miter" fill="none" stroke="#800000" d="M157.011 363.3297H186.291V334.0228H157.011Z"/>
<path transform="matrix(1.0302,0,0,-1.029,0,586.5322)" d="M161.891 358.4452V338.9073H181.411V358.4452H161.891Z" fill="#ffffff" fill-rule="evenodd"/>
<path transform="matrix(1.0302,0,0,-1.029,0,586.5322)" stroke-width=".1164" stroke-linecap="round" stroke-miterlimit="10" stroke-linejoin="miter" fill="none" stroke="#ffffff" d="M161.891 358.4452H181.411V338.9073H161.891Z"/>
<text xml:space="preserve" transform="matrix(1.0302 0 -0 1.029 0 586.5322)" font-size="5.7071" font-family="Times New Roman"><tspan y="-353.3642" x="165.7019 169.22147 172.10756 174.55362 177.46538">Load </tspan></text>
<text xml:space="preserve" transform="matrix(1.0302 0 -0 1.029 0 586.5322)" font-size="5.7071" font-family="Times New Roman"><tspan y="-346.9583" x="163.7237 166.91396 171.0516 172.6553 174.259 176.81008">Switch</tspan></text>
<text xml:space="preserve" transform="matrix(1.0302 0 -0 1.029 0 586.5322)" font-size="5.7071" font-family="Times New Roman"><tspan y="-340.6689" x="163.0256 165.93737 168.84912 171.76088 176.17189">500mA</tspan></text>
<path transform="matrix(1.0302,0,0,-1.029,0,586.5322)" d="M157.011 397.5285V368.2142H186.291V397.5285H157.011Z" fill="#ffa4a4" fill-rule="evenodd"/>
<path transform="matrix(1.0302,0,0,-1.029,0,586.5322)" stroke-width=".1164" stroke-linecap="round" stroke-miterlimit="10" stroke-linejoin="miter" fill="none" stroke="#800000" d="M157.011 397.5285H186.291V368.2142H157.011Z"/>
<path transform="matrix(1.0302,0,0,-1.029,0,586.5322)" d="M161.891 392.644V373.106H181.411V392.644H161.891Z" fill="#ffffff" fill-rule="evenodd"/>
<path transform="matrix(1.0302,0,0,-1.029,0,586.5322)" stroke-width=".1164" stroke-linecap="round" stroke-miterlimit="10" stroke-linejoin="miter" fill="none" stroke="#ffffff" d="M161.891 392.644H181.411V373.106H161.891Z"/>
<text xml:space="preserve" transform="matrix(1.0302 0 -0 1.029 0 586.5322)" font-size="5.7071" font-family="Times New Roman"><tspan y="-387.4902" x="165.7019 169.22147 172.10756 174.55362 177.46538">Load </tspan></text>
<text xml:space="preserve" transform="matrix(1.0302 0 -0 1.029 0 586.5322)" font-size="5.7071" font-family="Times New Roman"><tspan y="-381.2007" x="163.7237 166.91396 171.0516 172.6553 174.259 176.81008">Switch</tspan></text>
<text xml:space="preserve" transform="matrix(1.0302 0 -0 1.029 0 586.5322)" font-size="5.7071" font-family="Times New Roman"><tspan y="-374.7948" x="163.0256 165.93737 168.84912 171.76088 176.17189">500mA</tspan></text>
<path transform="matrix(1.0302,0,0,-1.029,0,586.5322)" d="M157.0183 329.1383V299.8313H186.2983V329.1383H157.0183Z" fill="#ffa4a4" fill-rule="evenodd"/>
<path transform="matrix(1.0302,0,0,-1.029,0,586.5322)" stroke-width=".1164" stroke-linecap="round" stroke-miterlimit="10" stroke-linejoin="miter" fill="none" stroke="#800000" d="M157.0183 329.1383H186.2983V299.8313H157.0183Z"/>
<path transform="matrix(1.0302,0,0,-1.029,0,586.5322)" d="M161.891 324.2465V304.7085H181.411V324.2465H161.891Z" fill="#ffffff" fill-rule="evenodd"/>
<path transform="matrix(1.0302,0,0,-1.029,0,586.5322)" stroke-width=".1164" stroke-linecap="round" stroke-miterlimit="10" stroke-linejoin="miter" fill="none" stroke="#ffffff" d="M161.891 324.2465H181.411V304.7085H161.891Z"/>
<text xml:space="preserve" transform="matrix(1.0302 0 -0 1.029 0 586.5322)" font-size="5.7071" font-family="Times New Roman"><tspan y="-319.1218" x="165.7019 169.22147 172.10756 174.55362 177.46538">Load </tspan></text>
<text xml:space="preserve" transform="matrix(1.0302 0 -0 1.029 0 586.5322)" font-size="5.7071" font-family="Times New Roman"><tspan y="-312.8323" x="163.7237 166.91396 171.0516 172.6553 174.259 176.81008">Switch</tspan></text>
<text xml:space="preserve" transform="matrix(1.0302 0 -0 1.029 0 586.5322)" font-size="5.7071" font-family="Times New Roman"><tspan y="-306.4264" x="163.0256 165.93737 168.84912 171.76088 176.17189">500mA</tspan></text>
<path transform="matrix(1.0302,0,0,-1.029,0,586.5322)" d="M157.0183 294.9395V265.6325H186.2983V294.9395H157.0183Z" fill="#ffa4a4" fill-rule="evenodd"/>
<path transform="matrix(1.0302,0,0,-1.029,0,586.5322)" stroke-width=".1164" stroke-linecap="round" stroke-miterlimit="10" stroke-linejoin="miter" fill="none" stroke="#800000" d="M157.0183 294.9395H186.2983V265.6325H157.0183Z"/>
<path transform="matrix(1.0302,0,0,-1.029,0,586.5322)" d="M161.891 290.0623V270.5097H181.411V290.0623H161.891Z" fill="#ffffff" fill-rule="evenodd"/>
<path transform="matrix(1.0302,0,0,-1.029,0,586.5322)" stroke-width=".1164" stroke-linecap="round" stroke-miterlimit="10" stroke-linejoin="miter" fill="none" stroke="#ffffff" d="M161.891 290.0623H181.411V270.5097H161.891Z"/>
<text xml:space="preserve" transform="matrix(1.0302 0 -0 1.029 0 586.5322)" font-size="5.7071" font-family="Times New Roman"><tspan y="-284.9958" x="165.7019 169.22147 172.10756 174.55362 177.46538">Load </tspan></text>
<text xml:space="preserve" transform="matrix(1.0302 0 -0 1.029 0 586.5322)" font-size="5.7071" font-family="Times New Roman"><tspan y="-278.5899" x="163.7237 166.91396 171.0516 172.6553 174.259 176.81008">Switch</tspan></text>
<text xml:space="preserve" transform="matrix(1.0302 0 -0 1.029 0 586.5322)" font-size="5.7071" font-family="Times New Roman"><tspan y="-272.3005" x="163.0256 165.93737 168.84912 171.76088 176.17189">500mA</tspan></text>
<path transform="matrix(1.0302,0,0,-1.029,0,586.5322)" d="M157.0183 260.7408V231.4338H186.2983V260.7408H157.0183Z" fill="#ffa4a4" fill-rule="evenodd"/>
<path transform="matrix(1.0302,0,0,-1.029,0,586.5322)" stroke-width=".1164" stroke-linecap="round" stroke-miterlimit="10" stroke-linejoin="miter" fill="none" stroke="#800000" d="M157.0183 260.7408H186.2983V231.4338H157.0183Z"/>
<path transform="matrix(1.0302,0,0,-1.029,0,586.5322)" d="M161.891 255.8635V236.3255H181.411V255.8635H161.891Z" fill="#ffffff" fill-rule="evenodd"/>
<path transform="matrix(1.0302,0,0,-1.029,0,586.5322)" stroke-width=".1164" stroke-linecap="round" stroke-miterlimit="10" stroke-linejoin="miter" fill="none" stroke="#ffffff" d="M161.891 255.8635H181.411V236.3255H161.891Z"/>
<text xml:space="preserve" transform="matrix(1.0302 0 -0 1.029 0 586.5322)" font-size="5.7071" font-family="Times New Roman"><tspan y="-250.7534" x="165.7019 169.22147 172.10756 174.55362 177.46538">Load </tspan></text>
<text xml:space="preserve" transform="matrix(1.0302 0 -0 1.029 0 586.5322)" font-size="5.7071" font-family="Times New Roman"><tspan y="-244.3475" x="163.7237 166.91396 171.0516 172.6553 174.259 176.81008">Switch</tspan></text>
<text xml:space="preserve" transform="matrix(1.0302 0 -0 1.029 0 586.5322)" font-size="5.7071" font-family="Times New Roman"><tspan y="-238.0581" x="163.0256 165.93737 168.84912 171.76088 176.17189">500mA</tspan></text>
<path transform="matrix(1.0302,0,0,-1.029,0,586.5322)" stroke-width="2.4436" stroke-linecap="round" stroke-miterlimit="10" stroke-linejoin="miter" fill="none" stroke="#0b5394" d="M157.011 348.6763H132.6037"/>
<path transform="matrix(1.0302,0,0,-1.029,0,586.5322)" stroke-width="2.4436" stroke-linecap="round" stroke-miterlimit="10" stroke-linejoin="miter" fill="none" stroke="#0b5394" d="M132.611 348.6763V314.4775"/>
<path transform="matrix(1.0302,0,0,-1.029,0,586.5322)" stroke-width="2.4436" stroke-linecap="round" stroke-miterlimit="10" stroke-linejoin="miter" fill="none" stroke="#0b5394" d="M157.011 382.875H132.6037"/>
<path transform="matrix(1.0302,0,0,-1.029,0,586.5322)" stroke-width="2.4436" stroke-linecap="round" stroke-miterlimit="10" stroke-linejoin="miter" fill="none" stroke="#0b5394" d="M132.6037 382.875V348.6763"/>
<path transform="matrix(1.0302,0,0,-1.029,0,586.5322)" stroke-width="2.4436" stroke-linecap="round" stroke-miterlimit="10" stroke-linejoin="miter" fill="none" stroke="#0b5394" d="M157.0183 280.2933H132.611"/>
<path transform="matrix(1.0302,0,0,-1.029,0,586.5322)" stroke-width="2.4436" stroke-linecap="round" stroke-miterlimit="10" stroke-linejoin="miter" fill="none" stroke="#0b5394" d="M132.611 280.2933V314.4775"/>
<path transform="matrix(1.0302,0,0,-1.029,0,586.5322)" stroke-width="2.4436" stroke-linecap="round" stroke-miterlimit="10" stroke-linejoin="miter" fill="none" stroke="#0b5394" d="M157.0183 246.0945H132.611"/>
<path transform="matrix(1.0302,0,0,-1.029,0,586.5322)" stroke-width="2.4436" stroke-linecap="round" stroke-miterlimit="10" stroke-linejoin="miter" fill="none" stroke="#0b5394" d="M132.611 246.0945V280.2933"/>
<path transform="matrix(1.0302,0,0,-1.029,0,586.5322)" stroke-width="1.5127" stroke-linecap="round" stroke-miterlimit="10" stroke-linejoin="miter" fill="none" stroke="#0b5394" d="M186.291 382.875H225.3311"/>
<path transform="matrix(1.0302,0,0,-1.029,0,586.5322)" stroke-width="1.5127" stroke-linecap="round" stroke-miterlimit="10" stroke-linejoin="miter" fill="none" stroke="#0b5394" d="M186.291 348.6763H225.3311"/>
<path transform="matrix(1.0302,0,0,-1.029,0,586.5322)" stroke-width="1.5127" stroke-linecap="round" stroke-miterlimit="10" stroke-linejoin="miter" fill="none" stroke="#0b5394" d="M186.2983 314.4775H225.3383"/>
<path transform="matrix(1.0302,0,0,-1.029,0,586.5322)" stroke-width="1.5127" stroke-linecap="round" stroke-miterlimit="10" stroke-linejoin="miter" fill="none" stroke="#0b5394" d="M186.2983 280.2933H225.3383"/>
<path transform="matrix(1.0302,0,0,-1.029,0,586.5322)" stroke-width="1.5127" stroke-linecap="round" stroke-miterlimit="10" stroke-linejoin="miter" fill="none" stroke="#0b5394" d="M186.2983 246.0945H225.3383"/>
<text fill="#000080" xml:space="preserve" transform="matrix(1.0302 0 -0 1.029 0 586.5322)" font-size="6.6388" font-family="Times New Roman"><tspan y="-384.3455" x="188.2765 191.85614 196.53783 200.85504 204.81508 206.32939 209.60498 211.22086 214.93062 221.21623">PORT 1 PWR</tspan></text>
<text fill="#000080" xml:space="preserve" transform="matrix(1.0302 0 -0 1.029 0 586.5322)" font-size="6.6388" font-family="Times New Roman"><tspan y="-350.103" x="188.2765 191.85614 196.53783 200.85504 204.81508 206.32939 209.60498 211.22086 214.93062 221.21623">PORT 2 PWR</tspan></text>
<text fill="#000080" xml:space="preserve" transform="matrix(1.0302 0 -0 1.029 0 586.5322)" font-size="6.6388" font-family="Times New Roman"><tspan y="-315.8606" x="188.2765 191.85614 196.53783 200.85504 204.81508 206.32939 209.60498 211.22086 214.93062 221.21623">PORT 3 PWR</tspan></text>
<text fill="#000080" xml:space="preserve" transform="matrix(1.0302 0 -0 1.029 0 586.5322)" font-size="6.6388" font-family="Times New Roman"><tspan y="-281.7346" x="188.2765 191.85614 196.53783 200.85504 204.81508 206.32939 209.60498 211.22086 214.93062 221.21623">PORT 4 PWR</tspan></text>
<text fill="#000080" xml:space="preserve" transform="matrix(1.0302 0 -0 1.029 0 586.5322)" font-size="6.6388" font-family="Times New Roman"><tspan y="-247.4922" x="188.2765 191.85614 196.53783 200.85504 204.81508 206.32939 209.60498 211.22086 214.93062 221.21623">PORT 5 PWR</tspan></text>
<path transform="matrix(1.0302,0,0,-1.029,0,586.5322)" d="M157.0183 226.5566V197.2496H186.2983V226.5566H157.0183Z" fill="#ffa4a4" fill-rule="evenodd"/>
<path transform="matrix(1.0302,0,0,-1.029,0,586.5322)" stroke-width=".1164" stroke-linecap="round" stroke-miterlimit="10" stroke-linejoin="miter" fill="none" stroke="#800000" d="M157.0183 226.5566H186.2983V197.2496H157.0183Z"/>
<path transform="matrix(1.0302,0,0,-1.029,0,586.5322)" stroke-width="1.5127" stroke-linecap="round" stroke-miterlimit="10" stroke-linejoin="miter" fill="none" stroke="#0b5394" d="M186.2983 211.8958H225.3383"/>
<text fill="#000080" xml:space="preserve" transform="matrix(1.0302 0 -0 1.029 0 586.5322)" font-size="6.6388" font-family="Times New Roman"><tspan y="-213.3662" x="188.2765 191.85614 196.53783 200.85504 204.81508 206.32939 209.60498 211.22086 214.93062 221.21623">PORT 6 PWR</tspan></text>
<path transform="matrix(1.0302,0,0,-1.029,0,586.5322)" d="M161.891 221.6648V202.1268H181.411V221.6648H161.891Z" fill="#ffffff" fill-rule="evenodd"/>
<path transform="matrix(1.0302,0,0,-1.029,0,586.5322)" stroke-width=".1164" stroke-linecap="round" stroke-miterlimit="10" stroke-linejoin="miter" fill="none" stroke="#ffffff" d="M161.891 221.6648H181.411V202.1268H161.891Z"/>
<text xml:space="preserve" transform="matrix(1.0302 0 -0 1.029 0 586.5322)" font-size="5.7071" font-family="Times New Roman"><tspan y="-216.5109" x="165.7019 169.22147 172.10756 174.55362 177.46538">Load </tspan></text>
<text xml:space="preserve" transform="matrix(1.0302 0 -0 1.029 0 586.5322)" font-size="5.7071" font-family="Times New Roman"><tspan y="-210.2215" x="163.7237 166.91396 171.0516 172.6553 174.259 176.81008">Switch</tspan></text>
<text xml:space="preserve" transform="matrix(1.0302 0 -0 1.029 0 586.5322)" font-size="5.7071" font-family="Times New Roman"><tspan y="-203.8156" x="163.0256 165.93737 168.84912 171.76088 176.17189">500mA</tspan></text>
<path transform="matrix(1.0302,0,0,-1.029,0,586.5322)" stroke-width="2.4436" stroke-linecap="round" stroke-miterlimit="10" stroke-linejoin="miter" fill="none" stroke="#0b5394" d="M157.0183 211.8958H132.611"/>
<path transform="matrix(1.0302,0,0,-1.029,0,586.5322)" stroke-width="2.4436" stroke-linecap="round" stroke-miterlimit="10" stroke-linejoin="miter" fill="none" stroke="#0b5394" d="M132.611 211.8958V246.0945"/>
<path transform="matrix(1.0302,0,0,-1.029,0,586.5322)" stroke-width="2.4436" stroke-linecap="round" stroke-miterlimit="10" stroke-linejoin="miter" fill="none" stroke="#0b5394" d="M157.0183 314.4775H132.611"/>
<path transform="matrix(1.0302,0,0,-1.029,0,586.5322)" stroke-width="2.4436" stroke-linecap="round" stroke-miterlimit="10" stroke-linejoin="miter" fill="none" stroke="#0b5394" d="M132.611 297.3854H108.2037"/>
<text xml:space="preserve" transform="matrix(1.0302 0 -0 1.029 0 586.5322)" font-size="13.2777" font-family="Times New Roman"><tspan y="-269.9711" x="57.9491 64.45384 73.90624 77.1938 83.80079">5V 3A</tspan></text>
<path transform="matrix(1.0302,0,0,-1.029,0,586.5322)" d="M649.9495 182.5888V123.9748H723.1423V182.5888H649.9495Z" fill="#d9d2e9" fill-rule="evenodd"/>
<path transform="matrix(1.0302,0,0,-1.029,0,586.5322)" stroke-width=".1164" stroke-linecap="round" stroke-miterlimit="10" stroke-linejoin="miter" fill="none" stroke="#800000" d="M649.9495 182.5888H723.1423V123.9748H649.9495Z"/>
<path transform="matrix(1.0302,0,0,-1.029,0,586.5322)" d="M649.9495 94.6533V36.0393H723.1423V94.6533H649.9495Z" fill="#d9d2e9" fill-rule="evenodd"/>
<path transform="matrix(1.0302,0,0,-1.029,0,586.5322)" stroke-width=".1164" stroke-linecap="round" stroke-miterlimit="10" stroke-linejoin="miter" fill="none" stroke="#800000" d="M649.9495 94.6533H723.1423V36.0393H649.9495Z"/>
<path transform="matrix(1.0302,0,0,-1.029,0,586.5322)" d="M39.8837 182.5888V123.9748H113.091V182.5888H39.8837Z" fill="#d9d2e9" fill-rule="evenodd"/>
<path transform="matrix(1.0302,0,0,-1.029,0,586.5322)" stroke-width=".1164" stroke-linecap="round" stroke-miterlimit="10" stroke-linejoin="miter" fill="none" stroke="#800000" d="M39.8837 182.5888H113.091V123.9748H39.8837Z"/>
<path transform="matrix(1.0302,0,0,-1.029,0,586.5322)" d="M39.8837 94.6533V36.0393H113.1055V94.6533H39.8837Z" fill="#d9d2e9" fill-rule="evenodd"/>
<path transform="matrix(1.0302,0,0,-1.029,0,586.5322)" stroke-width=".1164" stroke-linecap="round" stroke-miterlimit="10" stroke-linejoin="miter" fill="none" stroke="#800000" d="M39.8837 94.6533H113.1055V36.0393H39.8837Z"/>
<path transform="matrix(1.0302,0,0,-1.029,0,586.5322)" stroke-width="2.4436" stroke-linecap="round" stroke-miterlimit="10" stroke-linejoin="miter" fill="none" stroke="#0b5394" d="M113.091 153.2818H205.8183"/>
<path transform="matrix(1.0302,0,0,-1.029,0,586.5322)" stroke-width="2.4436" stroke-linecap="round" stroke-miterlimit="10" stroke-linejoin="miter" fill="none" stroke="#0b5394" d="M205.8183 153.2818V143.5128"/>
<path transform="matrix(1.0302,0,0,-1.029,0,586.5322)" stroke-width="2.4436" stroke-linecap="round" stroke-miterlimit="10" stroke-linejoin="miter" fill="none" stroke="#0b5394" d="M205.8183 143.5128H308.3057"/>
<path transform="matrix(1.0302,0,0,-1.029,0,586.5322)" stroke-width="2.4436" stroke-linecap="round" stroke-miterlimit="10" stroke-linejoin="miter" fill="none" stroke="#0b5394" d="M113.1055 65.3318H205.8183"/>
<path transform="matrix(1.0302,0,0,-1.029,0,586.5322)" stroke-width="2.4436" stroke-linecap="round" stroke-miterlimit="10" stroke-linejoin="miter" fill="none" stroke="#0b5394" d="M205.8183 65.3318V75.1153"/>
<path transform="matrix(1.0302,0,0,-1.029,0,586.5322)" stroke-width="2.4436" stroke-linecap="round" stroke-miterlimit="10" stroke-linejoin="miter" fill="none" stroke="#0b5394" d="M205.8183 75.1153H308.3057"/>
<path transform="matrix(1.0302,0,0,-1.029,0,586.5322)" stroke-width="2.4436" stroke-linecap="round" stroke-miterlimit="10" stroke-linejoin="miter" fill="none" stroke="#0b5394" d="M449.833 143.5128H547.4622"/>
<path transform="matrix(1.0302,0,0,-1.029,0,586.5322)" stroke-width="2.4436" stroke-linecap="round" stroke-miterlimit="10" stroke-linejoin="miter" fill="none" stroke="#0b5394" d="M547.4622 143.5128V153.2673"/>
<path transform="matrix(1.0302,0,0,-1.029,0,586.5322)" stroke-width="2.4436" stroke-linecap="round" stroke-miterlimit="10" stroke-linejoin="miter" fill="none" stroke="#0b5394" d="M547.4622 153.2673H649.9495"/>
<path transform="matrix(1.0302,0,0,-1.029,0,586.5322)" stroke-width="2.4436" stroke-linecap="round" stroke-miterlimit="10" stroke-linejoin="miter" fill="none" stroke="#0b5394" d="M649.9495 65.3318H547.4622"/>
<path transform="matrix(1.0302,0,0,-1.029,0,586.5322)" stroke-width="2.4436" stroke-linecap="round" stroke-miterlimit="10" stroke-linejoin="miter" fill="none" stroke="#0b5394" d="M547.4622 65.3318V75.1153"/>
<path transform="matrix(1.0302,0,0,-1.029,0,586.5322)" stroke-width="2.4436" stroke-linecap="round" stroke-miterlimit="10" stroke-linejoin="miter" fill="none" stroke="#0b5394" d="M547.4622 75.1153H449.833"/>
<text fill="#000080" xml:space="preserve" transform="matrix(1.0302 0 -0 1.029 0 586.5322)" font-size="26.4389" font-family="Times New Roman"><tspan y="-505.8246" x="215.5056 234.59714 249.2998 266.9372 273.54957 292.64109 311.7326 329.37 335.98237 353.61976 369.77656 388.86808 406.50547 425.597 432.20936 451.30088 460.10768 479.1992 498.2907 515.9281 535.01968">USB HUB BLOCK DIAGRAM</tspan></text>
<path transform="matrix(1.0302,0,0,-1.029,0,586.5322)" d="M44.7564 167.928V138.6211H108.2037V167.928H44.7564Z" fill="#ffffff" fill-rule="evenodd"/>
<path transform="matrix(1.0302,0,0,-1.029,0,586.5322)" stroke-width=".1164" stroke-linecap="round" stroke-miterlimit="10" stroke-linejoin="miter" fill="none" stroke="#ffffff" d="M44.7564 167.928H108.2037V138.6211H44.7564Z"/>
<text xml:space="preserve" transform="matrix(1.0302 0 -0 1.029 0 586.5322)" font-size="13.2777" font-family="Times New Roman"><tspan y="-156.179" x="47.9419 55.292436 64.84707 68.13463 76.95899 86.513629 95.33799">SD CARD</tspan></text>
<text xml:space="preserve" transform="matrix(1.0302 0 -0 1.029 0 586.5322)" font-size="13.2777" font-family="Times New Roman"><tspan y="-141.5037" x="50.0364 58.854124 66.92829 76.47629 86.025608 94.09845">READER</tspan></text>
<path transform="matrix(1.0302,0,0,-1.029,0,586.5322)" d="M44.7709 80.0071V50.6856H108.2183V80.0071H44.7709Z" fill="#ffffff" fill-rule="evenodd"/>
<path transform="matrix(1.0302,0,0,-1.029,0,586.5322)" stroke-width=".1164" stroke-linecap="round" stroke-miterlimit="10" stroke-linejoin="miter" fill="none" stroke="#ffffff" d="M44.7709 80.0071H108.2183V50.6856H44.7709Z"/>
<text xml:space="preserve" transform="matrix(1.0302 0 -0 1.029 0 586.5322)" font-size="13.2777" font-family="Times New Roman"><tspan y="-68.2435" x="53.2946 60.645139 68.725948 77.55031 81.93992 91.4972">SERIAL</tspan></text>
<text xml:space="preserve" transform="matrix(1.0302 0 -0 1.029 0 586.5322)" font-size="13.2777" font-family="Times New Roman"><tspan y="-53.5682" x="46.8946 55.720289 64.545978 68.93691 78.492877 88.048839 96.130977 99.422519">BRIDGE 1</tspan></text>
<path transform="matrix(1.0302,0,0,-1.029,0,586.5322)" d="M654.8077 167.9135V138.6211H718.255V167.9135H654.8077Z" fill="#ffffff" fill-rule="evenodd"/>
<path transform="matrix(1.0302,0,0,-1.029,0,586.5322)" stroke-width=".1164" stroke-linecap="round" stroke-miterlimit="10" stroke-linejoin="miter" fill="none" stroke="#ffffff" d="M654.8077 167.9135H718.255V138.6211H654.8077Z"/>
<text xml:space="preserve" transform="matrix(1.0302 0 -0 1.029 0 586.5322)" font-size="13.2777" font-family="Times New Roman"><tspan y="-156.179" x="663.3895 670.74008 678.82089 687.6452 692.0348 701.5921">SERIAL</tspan></text>
<text xml:space="preserve" transform="matrix(1.0302 0 -0 1.029 0 586.5322)" font-size="13.2777" font-family="Times New Roman"><tspan y="-141.5037" x="656.9895 665.8152 674.64089 679.0318 688.58779 698.14376 706.2259 709.5174">BRIDGE 1</tspan></text>
<path transform="matrix(1.0302,0,0,-1.029,0,586.5322)" d="M654.8077 80.0071V50.6856H718.255V80.0071H654.8077Z" fill="#ffffff" fill-rule="evenodd"/>
<path transform="matrix(1.0302,0,0,-1.029,0,586.5322)" stroke-width=".1164" stroke-linecap="round" stroke-miterlimit="10" stroke-linejoin="miter" fill="none" stroke="#ffffff" d="M654.8077 80.0071H718.255V50.6856H654.8077Z"/>
<text xml:space="preserve" transform="matrix(1.0302 0 -0 1.029 0 586.5322)" font-size="13.2777" font-family="Times New Roman"><tspan y="-68.2435" x="663.0405 670.4003 678.4904 686.5805 690.97946 700.54476">STLINK</tspan></text>
<text xml:space="preserve" transform="matrix(1.0302 0 -0 1.029 0 586.5322)" font-size="13.2777" font-family="Times New Roman"><tspan y="-53.5682" x="677.0041 681.3977 688.7522">ISP</tspan></text>
<text fill="#000080" xml:space="preserve" transform="matrix(1.0302 0 -0 1.029 0 586.5322)" font-size="6.6388" font-family="Times New Roman"><tspan y="-400.4184" x="395.1712 399.9465 404.7218 410.97093 415.74623 419.41947 423.45787 427.868 431.9064 436.6817 442.56568 444.20539">DOWNSTREAM 3</tspan></text>
<text fill="#000080" xml:space="preserve" transform="matrix(1.0302 0 -0 1.029 0 586.5322)" font-size="6.6388" font-family="Times New Roman"><tspan y="-375.9595" x="395.1712 399.9465 404.7218 410.97093 415.74623 419.41947 423.45787 427.868 431.9064 436.6817 442.56568 444.20539">DOWNSTREAM 4</tspan></text>
<text fill="#000080" xml:space="preserve" transform="matrix(1.0302 0 -0 1.029 0 586.5322)" font-size="6.6388" font-family="Times New Roman"><tspan y="-351.6171" x="395.1712 399.9465 404.7218 410.97093 415.74623 419.41947 423.45787 427.868 431.9064 436.6817 442.56568 444.20539">DOWNSTREAM 5</tspan></text>
<text fill="#000080" xml:space="preserve" transform="matrix(1.0302 0 -0 1.029 0 586.5322)" font-size="6.6388" font-family="Times New Roman"><tspan y="-327.1583" x="395.1712 399.9465 404.7218 410.97093 415.74623 419.41947 423.45787 427.868 431.9064 436.6817 442.56568 444.20539">DOWNSTREAM 6</tspan></text>
<text fill="#000080" xml:space="preserve" transform="matrix(1.0302 0 -0 1.029 0 586.5322)" font-size="6.6388" font-family="Times New Roman"><tspan y="-302.6994" x="395.1712 399.9465 404.7218 410.97093 415.74623 419.41947 423.45787 427.868 431.9064 436.6817 442.56568 444.20539">DOWNSTREAM 7</tspan></text>
</g>
</g>
</svg>
